<mxfile host="app.diagrams.net" agent="Mozilla/5.0 (Windows NT 10.0; Win64; x64) AppleWebKit/537.36 (KHTML, like Gecko) Chrome/129.0.0.0 Safari/537.36" version="24.7.16">
  <diagram name="페이지-1" id="7Ynsx05TQ_TW6J1zzL17">
    <mxGraphModel dx="1434" dy="720" grid="1" gridSize="10" guides="1" tooltips="1" connect="1" arrows="1" fold="1" page="1" pageScale="1" pageWidth="827" pageHeight="1169" math="0" shadow="0">
      <root>
        <mxCell id="0" />
        <mxCell id="1" parent="0" />
        <mxCell id="s8_g53VmeSPwoNF7_Ztp-12" value="main" style="swimlane;fontStyle=0;childLayout=stackLayout;horizontal=1;startSize=30;horizontalStack=0;resizeParent=1;resizeParentMax=0;resizeLast=0;collapsible=1;marginBottom=0;whiteSpace=wrap;html=1;" vertex="1" parent="1">
          <mxGeometry x="40" y="400" width="140" height="90" as="geometry" />
        </mxCell>
        <mxCell id="s8_g53VmeSPwoNF7_Ztp-13" value="accep socket" style="text;strokeColor=none;fillColor=none;align=left;verticalAlign=middle;spacingLeft=4;spacingRight=4;overflow=hidden;points=[[0,0.5],[1,0.5]];portConstraint=eastwest;rotatable=0;whiteSpace=wrap;html=1;" vertex="1" parent="s8_g53VmeSPwoNF7_Ztp-12">
          <mxGeometry y="30" width="140" height="30" as="geometry" />
        </mxCell>
        <mxCell id="s8_g53VmeSPwoNF7_Ztp-15" value="Item 3" style="text;strokeColor=none;fillColor=none;align=left;verticalAlign=middle;spacingLeft=4;spacingRight=4;overflow=hidden;points=[[0,0.5],[1,0.5]];portConstraint=eastwest;rotatable=0;whiteSpace=wrap;html=1;" vertex="1" parent="s8_g53VmeSPwoNF7_Ztp-12">
          <mxGeometry y="60" width="140" height="30" as="geometry" />
        </mxCell>
        <mxCell id="s8_g53VmeSPwoNF7_Ztp-17" value="&lt;h1 style=&quot;margin-top: 0px;&quot;&gt;identification_code.h&amp;nbsp; (식별 코드)&lt;/h1&gt;&lt;p style=&quot;line-height: 50%;&quot;&gt;#define LOGIN&lt;span style=&quot;white-space:pre&quot;&gt;&#x9;&#x9;&#x9;&lt;/span&gt;101&lt;span style=&quot;white-space:pre&quot;&gt;&#x9;&#x9;&lt;/span&gt;// 로그인 코드&lt;/p&gt;&lt;p style=&quot;line-height: 50%;&quot;&gt;#define REGISTER&lt;span style=&quot;white-space:pre&quot;&gt;&#x9;&#x9;&lt;span style=&quot;white-space: pre;&quot;&gt;&#x9;&lt;/span&gt;&lt;/span&gt;102&lt;span style=&quot;white-space:pre&quot;&gt;&#x9;&#x9;&lt;/span&gt;// 회원가입 코드&lt;/p&gt;&lt;p style=&quot;line-height: 50%;&quot;&gt;&lt;br&gt;&lt;/p&gt;&lt;p style=&quot;line-height: 50%;&quot;&gt;#define CR_ROOM&lt;span style=&quot;white-space:pre&quot;&gt;&#x9;&#x9;&#x9;&lt;/span&gt;201&lt;span style=&quot;white-space:pre&quot;&gt;&#x9;&#x9;&lt;/span&gt;// 채팅방 생성 코드&lt;/p&gt;&lt;p style=&quot;line-height: 50%;&quot;&gt;&lt;br&gt;&lt;/p&gt;&lt;p style=&quot;line-height: 50%;&quot;&gt;#define CHAT_MESSAGE&lt;span style=&quot;white-space:pre&quot;&gt;&#x9;&lt;/span&gt;301&lt;span style=&quot;white-space:pre&quot;&gt;&#x9;&#x9;&lt;/span&gt;// 채팅 메시지 코드&lt;/p&gt;&lt;p style=&quot;line-height: 50%;&quot;&gt;&lt;br&gt;&lt;/p&gt;&lt;p style=&quot;line-height: 50%;&quot;&gt;#define SUCCESS_LOGIN&lt;span style=&quot;white-space:pre&quot;&gt;&#x9;&lt;/span&gt;1010&lt;span style=&quot;white-space:pre&quot;&gt;&#x9;&lt;/span&gt;// 로그인 성공 코드&lt;/p&gt;&lt;p style=&quot;line-height: 50%;&quot;&gt;#define FAILED_LOGIN&lt;span style=&quot;white-space: pre;&quot;&gt;&#x9;&lt;/span&gt;&lt;span style=&quot;white-space:pre&quot;&gt;&#x9;&lt;/span&gt;1011&lt;span style=&quot;white-space:pre&quot;&gt;&#x9;&lt;/span&gt;// 로그인 실패 코드&lt;/p&gt;&lt;p style=&quot;line-height: 50%;&quot;&gt;#define EXISTS_LOGIN&lt;span style=&quot;white-space:pre&quot;&gt;&#x9;&lt;span style=&quot;white-space: pre;&quot;&gt;&#x9;&lt;/span&gt;&lt;/span&gt;1012&lt;span style=&quot;white-space:pre&quot;&gt;&#x9;&lt;/span&gt;// 이미 로그인한 계정 코드&lt;/p&gt;&lt;p style=&quot;line-height: 50%;&quot;&gt;&lt;br&gt;&lt;/p&gt;&lt;p style=&quot;line-height: 50%;&quot;&gt;#define SUCCESS_CR&lt;span style=&quot;white-space:pre&quot;&gt;&#x9;&#x9;&lt;/span&gt;2010&lt;span style=&quot;white-space:pre&quot;&gt;&#x9;&lt;/span&gt;// 채팅방 생성 성공 코드&lt;/p&gt;&lt;p style=&quot;line-height: 50%;&quot;&gt;#define FAILED_CR&lt;span style=&quot;white-space:pre&quot;&gt;&#x9;&#x9;&lt;/span&gt;2011&lt;span style=&quot;white-space:pre&quot;&gt;&#x9;&lt;/span&gt;// 채팅방 생성 실패 코드&lt;/p&gt;&lt;p style=&quot;line-height: 50%;&quot;&gt;#define EXISTS_CR&lt;span style=&quot;white-space:pre&quot;&gt;&#x9;&#x9;&lt;/span&gt;2012&lt;span style=&quot;white-space:pre&quot;&gt;&#x9;&lt;/span&gt;// 이미 채팅방이 존재하는 코드&lt;/p&gt;&lt;p style=&quot;line-height: 50%;&quot;&gt;&lt;br&gt;&lt;/p&gt;&lt;p style=&quot;line-height: 50%;&quot;&gt;#define ER404&lt;span style=&quot;white-space:pre&quot;&gt;&#x9;&#x9;&#x9;&lt;/span&gt;404&lt;span style=&quot;white-space:pre&quot;&gt;&#x9;&#x9;&lt;/span&gt;// 에러 코드&lt;/p&gt;" style="text;html=1;whiteSpace=wrap;overflow=hidden;rounded=0;" vertex="1" parent="1">
          <mxGeometry width="400" height="330" as="geometry" />
        </mxCell>
      </root>
    </mxGraphModel>
  </diagram>
</mxfile>
